<svg width="19" height="16" viewBox="0 0 19 16" fill="none" xmlns="http://www.w3.org/2000/svg">
<g id="Group 1">
<path id="Vector" d="M17.0194 0.881336L16.2835 0.145393C16.0755 -0.0625975 15.6915 -0.0305884 15.4515 0.257357L12.8913 2.80132C11.7392 2.30538 10.4754 2.06538 9.14731 2.06538C5.19519 2.08132 1.77141 4.38529 0.12329 7.69749C0.0272626 7.90549 0.0272626 8.16142 0.12329 8.3374C0.891223 9.90543 2.04329 11.2015 3.4833 12.1774L1.3873 14.3054C1.1473 14.5454 1.11529 14.9293 1.27534 15.1374L2.01128 15.8733C2.21928 16.0813 2.60326 16.0493 2.84326 15.7613L16.8912 1.71345C17.1952 1.47358 17.2272 1.08962 17.0192 0.881611L17.0194 0.881336ZM9.9953 5.71322C9.72329 5.6492 9.43534 5.56925 9.16332 5.56925C7.80327 5.56925 6.71538 6.65727 6.71538 8.01718C6.71538 8.28919 6.7794 8.57714 6.85935 8.84916L5.78724 9.90519C5.46728 9.34524 5.2913 8.72114 5.2913 8.01722C5.2913 5.88924 7.00332 4.17722 9.1313 4.17722C9.83536 4.17722 10.4593 4.3532 11.0193 4.67316L9.9953 5.71322Z" fill="#666666" fill-opacity="0.8"/>
<path id="Vector_2" d="M18.1714 7.69743C17.6114 6.57738 16.8753 5.56945 15.9634 4.75342L12.9874 7.69743V8.01738C12.9874 10.1454 11.2754 11.8574 9.14739 11.8574H8.82744L6.93945 13.7454C7.64351 13.8893 8.37946 13.9854 9.09946 13.9854C13.0516 13.9854 16.4754 11.6814 18.1235 8.35325C18.2675 8.12918 18.2675 7.90527 18.1714 7.69726L18.1714 7.69743Z" fill="#666666" fill-opacity="0.8"/>
</g>
</svg>
